# xmcd
#
# Track frame offsets: 
#        150
#        14225
#        29595
#        64871
#        88165
#        107762
#        127145
#        147522
#        166257
#        185546
#        202595
#        224955
#        248486
#        265501
#        284756
#
# Disc length: 3995 seconds
#
# Revision: 0
# Processed by: cddbd v1.5.2PL0 Copyright (c) Steve Scherf et al.
# Submitted via: ExactAudioCopy v0.95b2
#
DISCID=ee0f990f
DTITLE=Various Artist - Bob Harris Presents Vol 3
DYEAR=2002
DGENRE=Country
TTITLE0=Thea Gilmore - Fever Beats
TTITLE1=Cash Brothers - Take a Little Time
TTITLE2=Judie Tzuke - Drive
TTITLE3=Dan Bern - Turning Over
TTITLE4=Alice Peacock - My Love I Will
TTITLE5=Lori McKenna - Fireflies
TTITLE6=Norrin Radd - The Time Of Our Lives
TTITLE7=Mike Plume Band - Radiate
TTITLE8=Chris Richards - Why Arizona
TTITLE9=Mary Gauthier - I Drink
TTITLE10=The Be Good Tanyas - Only In The Past
TTITLE11=Anna Popovic - Bring Your Fine Self Home
TTITLE12=Mark Selby - She's Like A Mercury
TTITLE13=The Sorrentinos - Diamonds In Your Mind
TTITLE14=Chelle Rose - I'm Still Here
EXTD=
EXTT0=
EXTT1=
EXTT2=
EXTT3=
EXTT4=
EXTT5=
EXTT6=
EXTT7=
EXTT8=
EXTT9=
EXTT10=
EXTT11=
EXTT12=
EXTT13=
EXTT14=
PLAYORDER=
